<?xml version="1.0" standalone="no"?>
<!DOCTYPE svg PUBLIC "-//W3C//DTD SVG 20010904//EN"
 "http://www.w3.org/TR/2001/REC-SVG-20010904/DTD/svg10.dtd">
<svg version="1.0" xmlns="http://www.w3.org/2000/svg"
 width="1024.000000pt" height="1024.000000pt" viewBox="0 0 1024.000000 1024.000000"
 preserveAspectRatio="xMidYMid meet">

<g transform="translate(0.000000,1024.000000) scale(0.100000,-0.100000)"
fill="#000000" stroke="none">
<path d="M1632 6227 c-11 -12 -13 -229 -12 -1138 0 -703 4 -1127 10 -1133 5
-5 12 -7 15 -4 3 2 4 519 3 1148 -3 941 -5 1140 -16 1127z"/>
<path d="M5567 5934 c-11 -11 -9 -62 3 -69 6 -4 7 -11 4 -17 -4 -6 -2 -8 3 -5
6 4 16 0 23 -8 7 -8 27 -14 44 -14 21 1 24 3 10 6 -30 6 -65 46 -73 83 -3 17
-9 28 -14 24z"/>
<path d="M3776 5905 c-3 -9 -6 -155 -6 -324 0 -281 2 -309 18 -324 26 -24 292
-14 386 14 88 26 82 32 -9 9 -53 -14 -108 -19 -223 -19 l-153 -1 2 325 c2 178
0 327 -3 330 -3 3 -8 -1 -12 -10z"/>
<path d="M3949 5829 c-28 -8 -11 -12 47 -9 55 2 139 -24 179 -55 73 -55 101
-192 56 -273 -7 -13 -10 -26 -7 -29 3 -4 15 15 27 42 17 38 20 62 18 124 -5
97 -31 140 -104 176 -52 24 -167 37 -216 24z"/>
<path d="M5598 5720 c-4 -14 -8 -118 -8 -231 0 -235 2 -243 65 -236 l40 4 -42
1 -43 2 -2 243 c-2 133 -6 231 -10 217z"/>
<path d="M6490 5703 c-4 -175 3 -429 12 -440 6 -7 28 -12 52 -11 l41 1 -42 4
-43 4 0 224 c0 138 -4 226 -10 230 -5 3 -10 -2 -10 -12z"/>
<path d="M5080 5680 c-29 -41 -31 -120 -4 -156 25 -34 101 -74 140 -74 17 0
34 -3 38 -7 4 -5 11 -8 14 -8 22 -2 60 -20 79 -38 26 -23 38 -18 28 12 -6 21
-18 25 -157 61 -25 7 -60 20 -77 31 -59 35 -79 115 -46 179 20 39 12 38 -15 0z"/>
<path d="M4512 5657 c-23 -28 -62 -124 -62 -154 0 -39 32 -145 51 -167 37 -44
59 -61 114 -87 57 -27 65 -28 132 -20 39 5 79 14 89 21 18 11 18 11 -1 5 -140
-45 -295 30 -340 164 -22 68 -16 165 13 216 22 36 23 45 4 22z"/>
<path d="M4710 5659 c0 -6 9 -8 20 -4 24 8 62 -14 102 -58 34 -38 51 -32 33
11 -10 21 -26 38 -49 47 -41 17 -106 20 -106 4z"/>
<path d="M5263 5663 c-12 -2 -27 -12 -35 -21 -11 -15 -11 -16 3 -4 11 8 36 11
75 7 36 -3 53 -2 44 4 -21 12 -61 18 -87 14z"/>
<path d="M5855 5649 c-4 -6 -5 -12 -2 -15 2 -3 7 2 10 11 7 17 1 20 -8 4z"/>
<path d="M6710 5650 c-11 -7 -3 -9 29 -8 38 1 48 -3 73 -30 16 -18 28 -44 28
-60 1 -15 1 -72 1 -127 0 -55 4 -116 9 -135 5 -23 8 23 9 138 l1 174 -29 29
c-22 22 -39 29 -68 29 -21 0 -45 -5 -53 -10z"/>
<path d="M6077 5643 c-3 -5 14 -8 36 -8 78 -1 133 -74 125 -166 -7 -65 11 -49
18 17 12 96 -44 164 -133 164 -23 0 -44 -3 -46 -7z"/>
<path d="M5826 5570 c-16 -54 -11 -143 12 -200 12 -30 62 -98 62 -84 0 5 4 4
8 -1 23 -32 70 -49 147 -51 75 -3 76 -2 25 5 -68 11 -102 24 -146 58 -72 55
-111 163 -95 265 12 69 6 73 -13 8z"/>
<path d="M2060 5575 c0 -19 5 -25 21 -25 12 0 42 -11 68 -24 25 -12 91 -44
146 -71 209 -99 310 -150 313 -157 2 -5 11 -8 19 -8 14 0 308 -137 343 -160
43 -28 70 -39 84 -34 17 7 22 24 7 24 -5 0 -85 37 -177 81 -93 45 -227 110
-299 144 -71 35 -219 106 -327 158 -191 93 -198 95 -198 72z"/>
<path d="M4620 5473 c0 -5 48 -7 107 -5 193 4 211 8 51 10 -87 1 -158 -1 -158
-5z"/>
<path d="M5057 5310 c14 -51 178 -95 268 -71 l40 11 -44 -5 c-67 -8 -157 14
-213 52 -28 18 -51 33 -53 33 -2 0 -1 -9 2 -20z"/>
<path d="M6225 5288 c-16 -16 -25 -28 -19 -28 5 0 16 6 23 13 10 10 11 6 6
-18 -4 -16 -7 -37 -8 -45 -1 -8 -6 -19 -12 -23 -6 -5 -4 -7 5 -5 16 5 42 82
38 113 -3 19 -5 18 -33 -7z"/>
<path d="M6898 5253 c12 -2 30 -2 40 0 9 3 -1 5 -23 4 -22 0 -30 -2 -17 -4z"/>
<path d="M8116 5184 c-11 -28 -7 -794 4 -794 7 0 10 142 10 405 0 223 -2 405
-4 405 -2 0 -7 -7 -10 -16z"/>
<path d="M7502 5135 c-7 -14 -12 -31 -12 -38 1 -7 7 3 16 22 17 39 13 54 -4
16z"/>
<path d="M5652 5107 c-17 -20 -10 -59 15 -90 12 -15 25 -27 28 -27 26 1 35 -1
31 -9 -4 -5 3 -7 15 -4 19 5 19 7 -9 19 -38 15 -65 56 -65 95 0 33 -1 34 -15
16z"/>
<path d="M3994 5024 c-19 -41 -34 -78 -34 -82 0 -4 -20 -55 -44 -114 -24 -59
-41 -110 -38 -113 3 -3 1 -5 -5 -5 -6 0 -13 -10 -16 -22 -3 -13 -30 -84 -61
-158 -51 -124 -54 -135 -39 -152 12 -13 25 -16 62 -12 65 8 64 14 -3 14 -51 0
-58 2 -53 18 2 9 62 161 132 337 157 395 146 365 139 365 -3 0 -21 -34 -40
-76z"/>
<path d="M5896 5081 c-7 -11 48 -54 58 -44 3 3 6 2 6 -4 0 -15 80 -33 137 -32
l48 2 -61 8 c-60 7 -132 36 -166 66 -10 9 -18 10 -22 4z"/>
<path d="M7461 5024 c-12 -31 -20 -58 -18 -61 2 -2 14 22 26 53 12 31 20 59
17 61 -2 2 -14 -21 -25 -53z"/>
<path d="M7628 5018 c-2 -12 3 -35 10 -51 7 -15 33 -80 56 -144 23 -64 47
-118 53 -120 10 -4 -95 319 -109 332 -4 4 -8 -4 -10 -17z"/>
<path d="M6168 5013 c6 -2 18 -2 25 0 6 3 1 5 -13 5 -14 0 -19 -2 -12 -5z"/>
<path d="M4115 4952 c-3 -17 -2 -39 4 -49 6 -10 22 -47 36 -83 44 -110 49
-120 64 -125 8 -3 15 -4 16 -3 3 4 -101 277 -108 284 -3 3 -8 -8 -12 -24z"/>
<path d="M7426 4935 c-9 -26 -7 -32 5 -12 6 10 9 21 6 23 -2 3 -7 -2 -11 -11z"/>
<path d="M6488 4877 c-12 -28 -9 -63 5 -74 6 -6 32 -13 56 -16 24 -3 48 -11
52 -19 5 -7 9 -82 9 -166 0 -115 4 -160 15 -181 20 -40 89 -71 151 -70 l49 1
-62 14 c-128 28 -143 57 -143 279 l0 155 -59 0 -60 0 -3 48 c-2 32 -5 41 -10
29z"/>
<path d="M5684 4630 l1 -255 40 -5 c22 -3 49 -3 60 0 11 3 -4 7 -35 10 l-55 5
-3 225 c-1 124 -4 236 -6 250 -2 14 -3 -90 -2 -230z"/>
<path d="M4557 4837 c-15 -23 -20 -55 -18 -109 2 -49 88 -124 155 -132 11 -2
28 -6 36 -9 8 -3 33 -11 55 -18 47 -14 79 -44 71 -66 -5 -13 -4 -14 9 -3 40
34 8 68 -90 95 -102 28 -164 56 -190 87 -33 39 -41 90 -22 139 18 45 16 49 -6
16z"/>
<path d="M5115 4830 c-18 -29 -24 -77 -15 -111 11 -40 69 -99 98 -99 10 0 23
-5 29 -11 5 -5 21 -11 34 -13 67 -9 99 -20 129 -47 21 -19 30 -35 26 -46 -5
-13 -4 -14 9 -3 20 17 19 43 -2 63 -10 8 -55 25 -100 36 -138 34 -195 74 -209
147 -3 18 -1 47 4 64 11 30 9 40 -3 20z"/>
<path d="M5961 4822 c-13 -24 -21 -112 -10 -112 5 0 9 -6 9 -14 0 -23 62 -70
110 -85 138 -42 169 -54 185 -71 9 -10 14 -24 10 -31 -5 -7 -3 -10 6 -7 8 3
15 14 17 26 4 28 -25 45 -121 71 -131 36 -180 68 -198 133 -6 25 -7 50 0 73
10 38 7 45 -8 17z"/>
<path d="M4738 4815 c-16 -9 -28 -18 -28 -21 0 -2 9 0 19 6 22 11 64 13 75 3
3 -4 13 -8 20 -9 7 -1 24 -5 37 -9 l24 -6 -25 20 c-14 11 -32 21 -40 21 -8 0
-24 2 -35 5 -11 3 -32 -2 -47 -10z"/>
<path d="M6175 4823 c-39 -10 -33 -18 13 -19 26 0 62 -8 79 -18 26 -13 31 -14
27 -2 -5 13 -75 47 -92 45 -4 -1 -16 -3 -27 -6z"/>
<path d="M5284 4805 c-18 -14 -17 -14 10 -5 35 13 71 8 117 -15 33 -18 34 -18
19 1 -8 10 -19 22 -25 26 -18 14 -101 8 -121 -7z"/>
<path d="M6770 4792 c0 -4 18 -6 40 -4 22 2 40 6 40 8 0 2 -18 4 -40 4 -22 0
-40 -3 -40 -8z"/>
<path d="M7342 4713 c-58 -148 -83 -218 -74 -208 12 13 114 277 109 282 -2 2
-18 -32 -35 -74z"/>
<path d="M3270 4720 c-30 -16 -50 -29 -45 -29 6 0 35 13 65 29 30 16 51 29 45
29 -5 0 -35 -13 -65 -29z"/>
<path d="M3190 4680 c-9 -6 -10 -10 -3 -10 6 0 15 5 18 10 8 12 4 12 -15 0z"/>
<path d="M3130 4650 c-9 -6 -10 -10 -3 -10 6 0 15 5 18 10 8 12 4 12 -15 0z"/>
<path d="M3083 4630 c-13 -5 -23 -11 -23 -14 0 -7 40 6 46 15 6 10 6 10 -23
-1z"/>
<path d="M3000 4590 c-9 -6 -10 -10 -3 -10 6 0 15 5 18 10 8 12 4 12 -15 0z"/>
<path d="M2955 4570 c-3 -5 -2 -10 4 -10 5 0 13 5 16 10 3 6 2 10 -4 10 -5 0
-13 -4 -16 -10z"/>
<path d="M2840 4515 c-47 -24 -80 -44 -75 -44 6 0 48 20 95 44 47 24 81 44 75
44 -5 0 -48 -20 -95 -44z"/>
<path d="M3977 4553 c-16 -16 1 -18 133 -15 l141 3 20 -48 c50 -121 46 -118
119 -119 59 -1 60 0 10 3 l-56 4 -33 89 -33 90 -147 0 c-81 0 -151 -3 -154 -7z"/>
<path d="M7470 4542 c0 -4 73 -7 162 -7 155 0 163 -1 166 -20 2 -11 13 -39 23
-62 10 -23 19 -46 19 -51 0 -5 7 -15 15 -22 16 -13 10 10 -30 123 l-17 47
-169 0 c-93 0 -169 -3 -169 -8z"/>
<path d="M7238 4442 c-22 -60 -15 -67 7 -7 10 25 16 47 14 50 -3 2 -12 -17
-21 -43z"/>
<path d="M5073 4465 c0 -8 4 -12 9 -9 4 3 8 -3 8 -13 0 -19 73 -62 139 -82 37
-12 139 -13 186 -2 19 5 -5 8 -66 8 -110 1 -156 16 -227 76 -50 42 -49 42 -49
22z"/>
<path d="M5926 4472 c-10 -16 65 -80 113 -97 59 -21 165 -29 216 -18 33 8 24
9 -55 10 -111 0 -172 21 -231 79 -20 20 -39 31 -43 26z"/>
<path d="M2710 4450 c-9 -6 -10 -10 -3 -10 6 0 15 5 18 10 8 12 4 12 -15 0z"/>
<path d="M4533 4435 c8 -15 34 -35 72 -52 53 -24 72 -27 160 -27 55 0 111 6
125 12 22 10 20 11 -15 5 -119 -21 -229 1 -308 61 -42 32 -48 32 -34 1z"/>
<path d="M2600 4402 c-111 -55 -417 -201 -478 -230 -29 -13 -51 -26 -49 -29 3
-2 32 9 66 26 33 17 67 31 76 31 8 0 15 5 15 10 0 6 3 9 8 8 9 -3 452 211 452
218 0 8 -17 1 -90 -34z"/>
<path d="M7278 4373 c17 -2 47 -2 65 0 17 2 3 4 -33 4 -36 0 -50 -2 -32 -4z"/>
<path d="M7908 4373 c17 -2 47 -2 65 0 17 2 3 4 -33 4 -36 0 -50 -2 -32 -4z"/>
<path d="M8147 4373 c18 -2 50 -2 70 0 21 2 7 4 -32 4 -38 0 -55 -2 -38 -4z"/>
<path d="M1855 4045 c-93 -46 -166 -84 -161 -84 4 -1 78 33 163 74 86 41 161
75 169 75 8 0 14 5 14 10 0 15 -4 14 -185 -75z"/>
</g>
</svg>
